<svg xmlns="http://www.w3.org/2000/svg" xmlns:xlink="http://www.w3.org/1999/xlink" version="1.1" width="256" height="256" viewBox="0 0 256 256" xml:space="preserve">

<defs>
</defs>
<g style="stroke: none; stroke-width: 0; stroke-dasharray: none; stroke-linecap: butt; stroke-linejoin: miter; stroke-miterlimit: 10; fill: none; fill-rule: nonzero; opacity: 1;" transform="translate(1.4065934065934016 1.4065934065934016) scale(2.81 2.81)" >
	<path d="M 14.336 73.91 l 5.69 -9.855 l 5.69 -9.855 c 0.609 -1.056 -0.152 -2.375 -1.371 -2.375 h -7.171 c 1.969 -16.1 15.717 -28.613 32.34 -28.613 c 17.573 0 31.942 13.98 32.57 31.403 c 0.024 0.66 0.549 1.189 1.209 1.189 h 5.486 c 0.681 0 1.242 -0.561 1.221 -1.241 c -0.658 -21.763 -18.567 -39.264 -40.486 -39.264 c -20.992 0 -38.302 16.053 -40.307 36.527 h -7.62 c -1.219 0 -1.981 1.32 -1.371 2.375 l 5.69 9.855 l 5.69 9.855 C 12.203 74.966 13.727 74.966 14.336 73.91 z" style="stroke: none; stroke-width: 1; stroke-dasharray: none; stroke-linecap: butt; stroke-linejoin: miter; stroke-miterlimit: 10; fill: rgb(0,0,0); fill-rule: nonzero; opacity: 1;" transform=" matrix(1 0 0 1 0 0) " stroke-linecap="round" />
</g>
</svg>